<?xml version="1.0" encoding="utf-8"?>
<!-- Generator: Adobe Illustrator 22.1.0, SVG Export Plug-In . SVG Version: 6.00 Build 0)  -->
<svg version="1.1" id="Слой_1" xmlns="http://www.w3.org/2000/svg" xmlns:xlink="http://www.w3.org/1999/xlink" x="0px" y="0px"
	 viewBox="0 0 1022 1022" style="enable-background:new 0 0 1022 1022;" xml:space="preserve">
<style type="text/css">
	.st0{fill:#828282;}
	.st1{fill:#27AE60;}
	.st2{fill:#F7B583;}
	.st3{fill:#FFD2B0;}
	.st4{fill:#FFBF8F;}
	.st5{fill:#FFFFFF;}
</style>
<title>Монтажная область 1</title>
<path class="st0" d="M351.2,534.3c2.4,3.6,5.7,6.5,9.6,8.5c4.1,2.1,8.6,3.3,13.3,3.3c7.6,0,13.7-2.7,18.2-8.1c4.7-5.5,7-12.6,7-21.3
	s-2.3-15.8-7-21.3c-4.5-5.5-10.6-8.3-18.2-8.3c-4.6,0-9.1,1.2-13.1,3.5c-3.9,2-7.3,5-9.8,8.6L351.2,534.3z M351.2,561h-19.3V438.3
	h19.3v46.2c7.2-9.7,16.7-14.5,28.5-14.5c11.5,0,21,4.3,28.3,12.9c7.3,8.5,11,19.7,11,33.9c0,14.3-3.7,25.7-11,34
	c-7.3,8.3-16.8,12.5-28.3,12.5c-11.7,0-21.2-4.8-28.5-14.3V561z M457.5,461.3c-3.2,0-6.2-1.2-8.5-3.5c-4.7-4.7-4.7-12.2,0-16.9
	c2.2-2.2,5.3-3.5,8.5-3.5c6.6-0.6,12.4,4.3,13,10.9c0.6,6.6-4.3,12.4-10.9,13C458.9,461.4,458.2,461.4,457.5,461.3L457.5,461.3z
	 M467.3,561h-19.3v-88.9h19.3V561z M702.3,534.3c2.4,3.6,5.7,6.5,9.6,8.5c4.1,2.1,8.6,3.3,13.2,3.3c7.6,0,13.7-2.7,18.2-8.1
	c4.7-5.5,7-12.6,7-21.3c0-8.7-2.3-15.8-7-21.3c-4.5-5.5-10.6-8.3-18.2-8.3c-4.6,0-9.1,1.2-13.1,3.5c-3.9,2-7.3,5-9.8,8.6V534.3z
	 M702.3,561H683V438.3h19.3v46.2c7.2-9.7,16.7-14.5,28.5-14.5c11.5,0,21,4.3,28.3,12.9c7.3,8.5,11,19.7,11,33.9
	c0,14.3-3.7,25.7-11,34c-7.3,8.3-16.8,12.5-28.3,12.5c-11.7,0-21.2-4.8-28.5-14.3L702.3,561z M808.7,461.3c-3.2,0-6.2-1.3-8.5-3.5
	c-4.7-4.7-4.7-12.2,0-16.9c2.2-2.2,5.3-3.5,8.5-3.5c6.6-0.6,12.4,4.3,13,10.9c0.6,6.6-4.3,12.4-10.9,13
	C810.1,461.4,809.4,461.4,808.7,461.3L808.7,461.3z M818.4,561h-19.3v-88.9h19.3V561z"/>
<path class="st1" d="M528.2,563.2c-7.5,0-13.2-2-17.1-5.9c-3.8-3.9-5.7-9.6-5.7-16.9v-51.3h-14.7v-16.9h14.7v-24.3h19.3v24.3h18
	v16.9h-18v46.5c-0.1,2.7,0.6,5.5,2.2,7.7c1.5,1.9,3.9,2.9,6.3,2.8c3.9,0,6.8-1,8.6-3.1l4.6,14.5
	C542.4,561.3,536.3,563.2,528.2,563.2z M648.7,561h-19.3v-11.8c-8.3,9.3-18.8,14-31.5,14c-19,0-28.5-9.4-28.5-28.2v-62.9h19.3v55.9
	c0,6.5,1.5,11.2,4.6,14c3.1,2.7,7.5,4,13.2,4c4.6,0,9.1-1.1,13.1-3.3c3.8-2,7.1-4.8,9.8-8.3v-62.4h19.3L648.7,561z"/>
<path class="st0" d="M317.3,620h-1.2v-23.4h-16.7V620h-1.2v-24.5h19.1L317.3,620z M338.2,620h-1.1v-2.2c-1.6,1.7-3.8,2.7-6.1,2.6
	c-1.6,0-3.2-0.5-4.4-1.6c-1.2-1.1-1.9-2.7-1.8-4.3c-0.1-1.6,0.6-3.2,1.8-4.3c1.2-1.1,2.8-1.6,4.4-1.6c2.3-0.1,4.6,0.9,6.1,2.6v-4
	c0.1-1.2-0.5-2.4-1.4-3.2c-1-0.8-2.3-1.2-3.6-1.2c-2.2,0-4.3,1-5.7,2.8l-0.9-0.7c0.8-1,1.8-1.7,2.9-2.3c1.2-0.5,2.4-0.8,3.7-0.7
	c1.6-0.1,3.2,0.4,4.4,1.4c1.2,1,1.8,2.5,1.7,4L338.2,620z M331.2,619.5c2.3,0.1,4.5-0.9,5.9-2.7v-4.4c-1.4-1.8-3.6-2.8-5.9-2.7
	c-1.4-0.1-2.8,0.5-3.9,1.4c-0.9,0.9-1.5,2.2-1.4,3.5c0,1.3,0.5,2.6,1.4,3.5C328.4,619,329.8,619.5,331.2,619.5L331.2,619.5z
	 M353.8,620.5c-1.3,0-2.5-0.3-3.6-0.9c-1.1-0.6-2.1-1.5-2.8-2.6v9.8h-1.1v-24.6h1.1v3c1.5-2.1,3.8-3.4,6.4-3.4
	c2.2-0.1,4.3,0.8,5.8,2.5c2.9,4,2.9,9.5,0,13.5C358.2,619.6,356,620.5,353.8,620.5L353.8,620.5z M353.8,619.5
	c1.9,0.1,3.8-0.8,4.9-2.4c1.3-1.7,1.9-3.9,1.8-6c0.1-2.1-0.5-4.3-1.8-6c-1.1-1.6-3-2.4-4.9-2.4c-1.3,0-2.6,0.3-3.8,1
	c-1.1,0.6-2,1.5-2.6,2.5v9.5c0.7,1.1,1.6,1.9,2.6,2.5C351.2,619,352.5,619.4,353.8,619.5L353.8,619.5z M373.1,620H372v-16.8h-5.2v-1
	h11.7v1h-5.3L373.1,620z M385.7,620h-1.1v-17.8h1.1v8h10.9v-8h1.1V620h-1.1v-8.8h-10.9L385.7,620z M413.6,620.4
	c-2.4,0.1-4.7-0.9-6.3-2.6c-3.2-3.9-3.2-9.5,0-13.3c1.5-1.8,3.7-2.8,6-2.7c2.3-0.1,4.6,0.9,6.1,2.7c1.5,1.9,2.2,4.2,2.2,6.6v0.4
	h-15.4c0,2.1,0.7,4.1,2.1,5.7c1.4,1.5,3.3,2.3,5.4,2.3c2.4,0,4.6-0.9,6.2-2.7l0.7,0.7C418.7,619.4,416.2,620.5,413.6,620.4
	L413.6,620.4z M420.3,610.4c0-1.2-0.2-2.4-0.7-3.5c-0.5-1.2-1.4-2.2-2.4-3c-1.1-0.8-2.5-1.3-3.9-1.2c-2-0.1-3.9,0.8-5.1,2.4
	c-1.2,1.5-1.9,3.4-2,5.3L420.3,610.4z M436.2,620.4c-1.3,0-2.5-0.3-3.6-0.9c-1.1-0.6-2-1.5-2.8-2.6v9.8h-1.1v-24.5h1.1v3
	c0.7-1,1.6-1.9,2.7-2.4c1.1-0.7,2.4-1,3.7-1c2.2-0.1,4.3,0.8,5.8,2.5c2.9,4,2.9,9.5,0,13.5C440.6,619.6,438.4,620.5,436.2,620.4
	L436.2,620.4z M436.2,619.4c1.9,0.1,3.8-0.8,4.9-2.4c1.3-1.7,1.9-3.9,1.8-6c0.1-2.1-0.5-4.3-1.8-6c-1.1-1.6-3-2.4-4.9-2.4
	c-2.6,0-5,1.4-6.4,3.5v9.5c0.7,1,1.6,1.9,2.6,2.5C433.6,619,434.9,619.4,436.2,619.4L436.2,619.4z M458.6,620.4
	c-2.3,0.1-4.6-0.9-6.1-2.7c-1.6-1.9-2.4-4.2-2.3-6.7c-0.1-2.4,0.8-4.8,2.3-6.6c1.5-1.8,3.7-2.8,6.1-2.7c1.2,0,2.4,0.2,3.5,0.7
	c1,0.6,1.9,1.3,2.6,2.2l-0.8,0.7c-1.2-1.7-3.1-2.7-5.2-2.7c-2-0.1-4,0.8-5.3,2.4c-1.3,1.7-2,3.8-2,5.9c-0.1,2.2,0.6,4.3,2,6
	c1.3,1.6,3.3,2.4,5.3,2.4c2.1,0,4-1,5.2-2.7l0.8,0.7c-0.7,0.9-1.6,1.7-2.6,2.2C461,620.2,459.9,620.5,458.6,620.4L458.6,620.4z
	 M485.3,620h-1.6l-7.8-8.9l-3.7,3.4v5.6h-1.1v-17.8h1.1V613l11.6-10.8h1.6l-8.6,8L485.3,620z M503.9,620h-1.1v-2.2
	c-1.6,1.7-3.8,2.7-6.1,2.6c-1.6,0-3.2-0.5-4.4-1.6c-1.2-1.1-1.9-2.7-1.8-4.3c-0.1-1.6,0.6-3.2,1.8-4.3c1.2-1.1,2.8-1.6,4.4-1.6
	c2.3-0.1,4.6,0.9,6.1,2.6v-4c0.1-1.2-0.5-2.4-1.4-3.2c-1-0.8-2.3-1.2-3.6-1.2c-2.2,0-4.3,1-5.7,2.8l-0.9-0.7c0.8-1,1.8-1.7,2.9-2.3
	c1.2-0.5,2.4-0.8,3.7-0.7c1.6-0.1,3.2,0.4,4.4,1.4c1.2,1,1.8,2.5,1.7,4V620z M496.9,619.5c2.3,0.1,4.5-0.9,5.9-2.7v-4.4
	c-1.4-1.8-3.6-2.8-5.9-2.7c-1.4-0.1-2.8,0.5-3.9,1.4c-0.9,0.9-1.5,2.2-1.4,3.5c0,1.3,0.5,2.6,1.4,3.5
	C494.1,619,495.5,619.5,496.9,619.5L496.9,619.5z M512.9,620h-1.4l5.2-7.6c-1.4,0-2.7-0.5-3.7-1.4c-1.9-2.1-1.9-5.2,0-7.3
	c1-1,2.4-1.5,3.8-1.4h8.2V620h-1v-7.6h-6L512.9,620z M516.8,611.4h7.2v-8.2h-7.1c-1.1-0.1-2.2,0.3-3,1.1c-0.7,0.8-1.1,1.9-1.1,3
	c-0.1,1.1,0.3,2.2,1,3C514.6,611.1,515.7,611.5,516.8,611.4L516.8,611.4z M558.8,620h-1.6l-7.8-8.9l-3.7,3.4v5.6h-1.1v-17.8h1.1V613
	l11.6-10.8h1.7l-8.7,8L558.8,620z M572,620.4c-2.3,0.1-4.5-0.9-6-2.7c-1.5-1.9-2.4-4.3-2.3-6.7c-0.1-2.4,0.7-4.8,2.3-6.6
	c3-3.3,8.1-3.6,11.4-0.6c0.2,0.2,0.4,0.4,0.6,0.6c1.6,1.9,2.4,4.2,2.3,6.7c0.1,2.4-0.7,4.8-2.3,6.7
	C576.6,619.5,574.4,620.5,572,620.4L572,620.4z M572,619.4c2,0.1,3.9-0.8,5.2-2.4c1.3-1.7,2-3.8,1.9-5.9c0.1-2.1-0.6-4.2-1.9-5.8
	c-2.3-2.8-6.4-3.3-9.3-1c-0.4,0.3-0.7,0.6-1,1c-1.3,1.7-2,3.7-1.9,5.9c0,2.1,0.7,4.2,2,5.9C568.2,618.6,570.1,619.5,572,619.4
	L572,619.4z M603,620h-1v-16.3l-6.5,16.3h-0.3l-6.5-16.3V620h-1.1v-17.8h1.5l6.2,15.7l6.2-15.7h1.6L603,620z M624.2,620h-1.1v-16.8
	h-10.8V620h-1.1v-17.8h13.1L624.2,620z M645,620h-1v-2.2c-1.6,1.7-3.8,2.7-6.2,2.6c-1.6,0-3.2-0.5-4.4-1.6c-1.2-1.1-1.9-2.7-1.8-4.3
	c-0.1-1.6,0.6-3.2,1.8-4.3c1.2-1.1,2.8-1.6,4.4-1.6c2.3-0.1,4.6,0.9,6.2,2.6v-4c0.1-1.2-0.5-2.4-1.4-3.2c-1-0.8-2.3-1.2-3.6-1.2
	c-2.2,0-4.3,1-5.7,2.8l-0.8-0.7c0.8-1,1.8-1.7,2.9-2.3c1.2-0.5,2.4-0.8,3.7-0.7c1.6-0.1,3.2,0.4,4.4,1.4c1.2,1,1.8,2.5,1.7,4
	L645,620z M638,619.4c2.3,0.1,4.5-0.9,5.8-2.7v-4.4c-1.4-1.8-3.6-2.8-5.8-2.7c-1.4-0.1-2.8,0.5-3.9,1.4c-0.9,0.9-1.5,2.2-1.4,3.5
	c0,1.3,0.5,2.6,1.4,3.5c1.1,1,2.5,1.5,4,1.4L638,619.4z M654.2,620h-1.1v-17.8h1.1v8h10.9v-8h1.1V620h-1.1v-8.8h-10.8L654.2,620z
	 M675.4,620h-1v-17.8h1.1v16l11-16h1V620h-1.1v-16.2L675.4,620z M696.6,620h-1.4l5.2-7.6c-1.4,0-2.7-0.5-3.7-1.4
	c-1.9-2.1-1.9-5.2,0-7.3c1-1,2.4-1.5,3.8-1.4h8.2V620h-1.1v-7.6h-6L696.6,620z M700.5,611.4h7.1v-8.2h-7.1c-1.1-0.1-2.2,0.3-3,1.1
	c-0.7,0.8-1.1,1.9-1.1,3c-0.1,1.1,0.3,2.2,1,3c0.8,0.8,2,1.2,3.2,1.1L700.5,611.4z M720.5,605h-1.1l0.2-4.4l-3.7,2.4l-0.5-1l3.9-2
	l-3.9-2l0.5-1l3.7,2.4l-0.2-4.4h1.1l-0.2,4.4l3.7-2.4l0.5,1l-3.9,2l3.9,2l-0.5,1l-3.7-2.4L720.5,605z"/>
<path class="st1" d="M198.6,426.8h65.7c19.1,0,34.6,15.5,34.6,34.6v65.7c0,19.1-15.5,34.6-34.6,34.6h-65.7
	c-19.1,0-34.6-15.5-34.6-34.6v-65.7C164,442.2,179.5,426.8,198.6,426.8z"/>
<path class="st2" d="M268.6,506.2l-25,12.7l-7.4-42.2l27.5-1.9L268.6,506.2z"/>
<path class="st3" d="M196.6,474.2c0,0,13.1,2,18,1.5s16.7-3,18.5-2.4s32.4,34.5,33.1,36.5c0.9,2.5-3.5,6.9-6.8,5.5
	c0,0,2.1,2.4,0.5,4c-1.1,1.1-5.4,6.2-9,3.3c0,0,2.2,2.6-3.9,6c-3.5,2-5.9,0.2-5.9,0.2s-3.7,5.6-7.2,4.3c-2-0.8-46.5-32.3-46.5-32.3
	l8.9-26.1"/>
<path class="st2" d="M263.7,475.2l-23.7,4.6c0,0-4.8,3.3-9.5,6c-2.9,1.6-5.8,3-7.6,3.2c-1.6,0.3-3.2-0.1-4.4-1l5.2-9.7
	c4.6-4.2,10-8.9,11.7-9.5c3.2-1.2,17.6,5,17.6,5L263.7,475.2z"/>
<path class="st2" d="M207.1,514.2c-1.5,1.4-4,1.2-5.7-0.5s-1.9-4.3-0.5-5.7l6.5-6.5c1.5-1.4,4-1.2,5.7,0.5s1.9,4.3,0.5,5.7
	L207.1,514.2z"/>
<path class="st4" d="M212.6,506.8l-3.2,2.9c-1.3,0-3.5-2.4-3.7-3.7c0-0.3,0.1-0.7,0.1-1l2.6-2.5c0.4-0.4,0.9-0.6,1.4-0.5
	c0.9,0,1.7,0.4,2.3,1C213.3,504.2,213.5,505.9,212.6,506.8z"/>
<path class="st2" d="M214.3,520.4c-1.7,1.7-4.7,1.4-6.7-0.6s-2.3-5.1-0.6-6.8l7.7-7.6c1.7-1.7,4.7-1.4,6.7,0.6s2.3,5.1,0.5,6.8
	L214.3,520.4z"/>
<path class="st2" d="M211.5,520.1c-1.1,0-2.2-0.5-2.9-1.3c-1.5-1.5-1.8-3.7-0.6-4.8l7.7-7.6c0.5-0.5,1.2-0.7,1.9-0.7
	c1.1,0,2.2,0.5,2.9,1.3c1.5,1.5,1.7,3.7,0.6,4.8l-7.7,7.6C212.9,519.9,212.2,520.2,211.5,520.1z"/>
<path class="st2" d="M221.9,526.4c-1.6,1.6-4.5,1.3-6.4-0.6s-2.1-4.8-0.6-6.4l7.2-7.2c1.6-1.6,4.5-1.3,6.4,0.6
	c1.9,1.9,2.2,4.8,0.6,6.4L221.9,526.4z"/>
<path class="st2" d="M219.2,526c-1,0-2-0.5-2.8-1.2c-1.4-1.4-1.6-3.4-0.5-4.5l7.2-7.2c0.5-0.4,1.1-0.7,1.7-0.6c1,0,2,0.5,2.8,1.2
	c1.4,1.4,1.6,3.4,0.6,4.4l-7.2,7.2C220.5,525.8,219.9,526,219.2,526z"/>
<path class="st2" d="M229.1,531.3c-1.4,1.4-3.9,1.2-5.6-0.5s-1.9-4.2-0.5-5.6l6.4-6.3c1.4-1.4,3.9-1.2,5.6,0.5s1.9,4.2,0.4,5.6
	L229.1,531.3z"/>
<path class="st2" d="M226.7,530.8c-0.9,0-1.7-0.4-2.3-1c-0.6-0.5-0.9-1.3-1-2.1c-0.1-0.6,0.1-1.2,0.5-1.6l6.4-6.3
	c0.4-0.3,0.9-0.5,1.4-0.5c0.9,0,1.7,0.4,2.3,1.1c1.1,1.1,1.4,2.8,0.5,3.7l-6.4,6.3C227.7,530.7,227.2,530.8,226.7,530.8z"/>
<path class="st2" d="M231.1,484.7l-0.6,1l-2.3,3.4c-5.8,6.3-11.1,1.3-11.1,1.3l1.3-2.5l5.2-9.7L231.1,484.7z"/>
<path class="st2" d="M236.2,479.7c0.1,0.1,0.1,0.2,0.2,0.3c1.2,1.9,8.2,12.8,18,13.6c10.7,0.8-11.2-20.4-11.2-20.4"/>
<path class="st5" d="M273,472.1l-10.3,1.1l4.2,37.4l10.3-1.1L273,472.1z"/>
<path class="st5" d="M190.1,471.6l-4.6,37.3l10.3,1.3l4.6-37.3L190.1,471.6z"/>
<path class="st4" d="M220.1,511.4l-3.3,2.9c-1.3,0-3.5-2.4-3.7-3.7c0-0.3,0.1-0.7,0.1-1l2.6-2.5c0.4-0.4,0.9-0.6,1.4-0.5
	c0.9,0,1.7,0.4,2.3,1C220.8,508.8,221,510.5,220.1,511.4z"/>
<path class="st4" d="M227.9,517.6l-2.9,2.7c-1.2,0-3.2-2.2-3.3-3.3c0-0.3,0-0.6,0.1-0.9l2.3-2.3c0.3-0.3,0.8-0.5,1.3-0.5
	c0.8,0,1.6,0.4,2.1,1C228.4,515.1,228.6,516.6,227.9,517.6z"/>
<path class="st4" d="M234.1,523.7l-2.7,2.4c-1.1,0-2.9-2-3.1-3.1c0-0.3,0-0.6,0.1-0.8l2.1-2.1c0.3-0.3,0.7-0.5,1.2-0.5
	c0.7,0,1.4,0.3,1.9,0.9C234.6,521.5,234.8,523,234.1,523.7z"/>
<path class="st4" d="M217,490.4c0,0,2.2,0,3.2-1.3s2.9-4.4,2.8-5.1s-1.8-1.4-1.8-1.4L217,490.4z"/>
</svg>
