<svg id="Слой_1" data-name="Слой 1" xmlns="http://www.w3.org/2000/svg" viewBox="0 0 1022 1022"><defs><style>.cls-1{fill:#fff;}.cls-2{fill:#828282;}.cls-3{fill:#27ae60;}.cls-4{fill:#f7b583;}.cls-5{fill:#ffd2b0;}.cls-6{fill:#ffbf8f;}</style></defs><title>Монтажная область 1</title><rect class="cls-1" width="1022" height="1022"/><path class="cls-2" d="M351.17,534.33a25,25,0,0,0,9.56,8.46A29.54,29.54,0,0,0,374,546.1q11.4,0,18.21-8.09,7-8.28,7-21.34t-7-21.34q-6.81-8.28-18.21-8.28a27.1,27.1,0,0,0-13.06,3.49,26.06,26.06,0,0,0-9.75,8.65Zm0,26.67H331.85V438.3h19.32v46.17q10.84-14.54,28.51-14.53,17.29,0,28.33,12.88,11,12.69,11,33.85,0,21.52-11,34t-28.33,12.51q-17.48,0-28.51-14.35Zm106.34-99.71a11.91,11.91,0,0,1-8.46-3.49,12,12,0,0,1,0-16.93,11.91,11.91,0,0,1,8.46-3.49,12,12,0,1,1,0,23.91ZM467.26,561H447.94V472.15h19.32Zm235.09-26.67a25,25,0,0,0,9.56,8.46,29.5,29.5,0,0,0,13.25,3.31q11.4,0,18.21-8.09,7-8.28,7-21.34t-7-21.34q-6.81-8.28-18.21-8.28a27.07,27.07,0,0,0-13.06,3.49,25.91,25.91,0,0,0-9.75,8.65Zm0,26.67H683V438.3h19.32v46.17q10.85-14.54,28.51-14.53,17.29,0,28.33,12.88,11,12.69,11,33.85,0,21.52-11,34t-28.33,12.51q-17.48,0-28.51-14.35Zm106.33-99.71a12,12,0,0,1-8.46-3.49,12,12,0,0,1,0-16.93,12,12,0,0,1,8.46-3.49,12,12,0,1,1,0,23.91ZM818.43,561H799.12V472.15h19.31Z"/><path class="cls-3" d="M528.19,563.21q-11.22,0-17.11-5.89-5.7-5.88-5.7-16.92V489.07H490.66V472.15h14.72V447.86h19.31v24.29h18v16.92h-18v46.54a12.57,12.57,0,0,0,2.21,7.73,7.55,7.55,0,0,0,6.26,2.76q5.88,0,8.64-3.13l4.6,14.54Q540.33,563.21,528.19,563.21ZM648.74,561H629.43V549.23q-12.51,14-31.46,14-28.51,0-28.51-28.15V472.15h19.31v55.92q0,9.75,4.6,14,4.61,4.05,13.25,4.05a26.94,26.94,0,0,0,13.06-3.31,29.63,29.63,0,0,0,9.75-8.28V472.15h19.31Z"/><path class="cls-2" d="M317.33,620h-1.18V596.56H299.42V620h-1.18V595.46h19.09Zm20.84,0h-1.1v-2.17a8,8,0,0,1-6.15,2.61,6.61,6.61,0,0,1-4.38-1.58,5.52,5.52,0,0,1-1.84-4.34,5.41,5.41,0,0,1,1.84-4.31,6.42,6.42,0,0,1,4.38-1.62,8,8,0,0,1,6.15,2.62v-4a3.94,3.94,0,0,0-1.44-3.24,5.43,5.43,0,0,0-3.57-1.18,7.11,7.11,0,0,0-5.7,2.8l-.85-.74a9.29,9.29,0,0,1,2.87-2.32,8.36,8.36,0,0,1,3.68-.73,6.67,6.67,0,0,1,4.42,1.4,4.81,4.81,0,0,1,1.69,4Zm-7-.55a6.94,6.94,0,0,0,5.86-2.72v-4.42a6.91,6.91,0,0,0-5.86-2.72,5.32,5.32,0,0,0-3.86,1.43,4.68,4.68,0,0,0-1.43,3.5,4.78,4.78,0,0,0,1.43,3.53A5.39,5.39,0,0,0,331.21,619.45Zm22.62,1a7.43,7.43,0,0,1-3.64-.92,8.27,8.27,0,0,1-2.76-2.57v9.82h-1.11V602.23h1.11v3a7.91,7.91,0,0,1,6.4-3.42,7.21,7.21,0,0,1,5.78,2.54,11.56,11.56,0,0,1,0,13.54A7.16,7.16,0,0,1,353.83,620.44Zm0-1a5.82,5.82,0,0,0,4.93-2.36,9.57,9.57,0,0,0,1.8-6,9.42,9.42,0,0,0-1.8-6,5.82,5.82,0,0,0-4.93-2.36,7.38,7.38,0,0,0-3.75,1,7.28,7.28,0,0,0-2.65,2.5v9.53a7.54,7.54,0,0,0,2.65,2.54A7.14,7.14,0,0,0,353.83,619.45Zm19.34.55h-1.11V603.22H366.8v-1h11.66v1h-5.29Zm12.54,0H384.6V602.23h1.11v8H396.6v-8h1.1V620h-1.1v-8.76H385.71Zm27.93.44a8.21,8.21,0,0,1-6.29-2.61,10.39,10.39,0,0,1,0-13.32,7.62,7.62,0,0,1,6-2.72,7.37,7.37,0,0,1,6.07,2.68,10.25,10.25,0,0,1,2.17,6.63v.36H406.18a8.68,8.68,0,0,0,2.09,5.71,6.92,6.92,0,0,0,5.37,2.28,8.13,8.13,0,0,0,6.19-2.69l.66.7A9.17,9.17,0,0,1,413.64,620.44Zm6.7-10a8.64,8.64,0,0,0-.73-3.49,7.07,7.07,0,0,0-2.43-3,6.39,6.39,0,0,0-3.94-1.25,6.13,6.13,0,0,0-5.08,2.39,8.82,8.82,0,0,0-2,5.3Zm15.9,10a7.46,7.46,0,0,1-3.64-.92,8.46,8.46,0,0,1-2.76-2.57v9.82h-1.1V602.23h1.1v3a7.48,7.48,0,0,1,2.69-2.43,7.34,7.34,0,0,1,3.71-1,7.19,7.19,0,0,1,5.78,2.54,11.56,11.56,0,0,1,0,13.54A7.13,7.13,0,0,1,436.24,620.44Zm0-1a5.79,5.79,0,0,0,4.93-2.36,9.51,9.51,0,0,0,1.81-6,9.36,9.36,0,0,0-1.81-6,5.79,5.79,0,0,0-4.93-2.36,7.79,7.79,0,0,0-6.4,3.53v9.53a7.63,7.63,0,0,0,2.65,2.54A7.16,7.16,0,0,0,436.24,619.45Zm22.43,1a7.64,7.64,0,0,1-6.07-2.68,9.92,9.92,0,0,1-2.32-6.66,9.77,9.77,0,0,1,2.32-6.63,7.64,7.64,0,0,1,6.07-2.68,7.35,7.35,0,0,1,3.46.73,8.45,8.45,0,0,1,2.61,2.25l-.81.66a6.12,6.12,0,0,0-5.19-2.65,6.47,6.47,0,0,0-5.29,2.39,9,9,0,0,0-1.95,5.93,9.16,9.16,0,0,0,1.95,6,6.57,6.57,0,0,0,5.29,2.36,6.16,6.16,0,0,0,5.19-2.69l.81.7a8.45,8.45,0,0,1-2.61,2.25A7.35,7.35,0,0,1,458.67,620.44Zm26.72-.44h-1.58l-7.8-8.94-3.68,3.38V620h-1.11V602.23h1.11v10.82l11.59-10.82h1.58l-8.65,8Zm18.51,0h-1.11v-2.17a8,8,0,0,1-6.14,2.61,6.61,6.61,0,0,1-4.38-1.58,5.52,5.52,0,0,1-1.84-4.34,5.41,5.41,0,0,1,1.84-4.31,6.42,6.42,0,0,1,4.38-1.62,8,8,0,0,1,6.14,2.62v-4a3.94,3.94,0,0,0-1.43-3.24,5.43,5.43,0,0,0-3.57-1.18,7.11,7.11,0,0,0-5.7,2.8l-.85-.74a9.29,9.29,0,0,1,2.87-2.32,8.36,8.36,0,0,1,3.68-.73,6.63,6.63,0,0,1,4.41,1.4,4.78,4.78,0,0,1,1.7,4Zm-7-.55a6.91,6.91,0,0,0,5.85-2.72v-4.42a6.88,6.88,0,0,0-5.85-2.72,5.32,5.32,0,0,0-3.86,1.43,4.68,4.68,0,0,0-1.43,3.5,4.78,4.78,0,0,0,1.43,3.53A5.39,5.39,0,0,0,496.94,619.45Zm16,.55h-1.4l5.22-7.58a5.12,5.12,0,0,1-3.71-1.43,5.5,5.5,0,0,1,0-7.33,5.18,5.18,0,0,1,3.82-1.43h8.24V620H524v-7.58h-6Zm3.93-8.57H524v-8.21h-7.14a3.94,3.94,0,0,0-3,1.11,4.1,4.1,0,0,0-1.06,3,4.3,4.3,0,0,0,1,3A3.9,3.9,0,0,0,516.87,611.43Zm42,8.57h-1.58l-7.81-8.94-3.67,3.38V620h-1.11V602.23h1.11v10.82l11.59-10.82H559l-8.65,8Zm13.25.44a7.58,7.58,0,0,1-6-2.65,10,10,0,0,1-2.28-6.69,9.82,9.82,0,0,1,2.28-6.63,8.08,8.08,0,0,1,12,0,9.83,9.83,0,0,1,2.28,6.66,10,10,0,0,1-2.28,6.69A7.51,7.51,0,0,1,572.11,620.44Zm0-1a6.15,6.15,0,0,0,5.15-2.43,9.4,9.4,0,0,0,1.91-5.92,9.18,9.18,0,0,0-1.91-5.85,6.6,6.6,0,0,0-10.3,0A9.13,9.13,0,0,0,565,611.1,9.34,9.34,0,0,0,567,617,6.2,6.2,0,0,0,572.11,619.45Zm30.95.55H602V603.66L595.52,620h-.33l-6.48-16.34V620h-1.1V602.23h1.54l6.18,15.67,6.15-15.67h1.58Zm21.26,0h-1.11V603.22H612.32V620h-1.1V602.23h13.1Zm20.76,0H644v-2.17a8,8,0,0,1-6.15,2.61,6.62,6.62,0,0,1-4.38-1.58,5.52,5.52,0,0,1-1.84-4.34,5.41,5.41,0,0,1,1.84-4.31,6.42,6.42,0,0,1,4.38-1.62,8,8,0,0,1,6.15,2.62v-4a3.94,3.94,0,0,0-1.44-3.24,5.39,5.39,0,0,0-3.57-1.18,7.13,7.13,0,0,0-5.7,2.8l-.85-.74a9.29,9.29,0,0,1,2.87-2.32,8.39,8.39,0,0,1,3.68-.73,6.67,6.67,0,0,1,4.42,1.4,4.78,4.78,0,0,1,1.69,4Zm-7-.55a6.93,6.93,0,0,0,5.85-2.72v-4.42a6.9,6.9,0,0,0-5.85-2.72,5.33,5.33,0,0,0-3.87,1.43,4.72,4.72,0,0,0-1.43,3.5,4.82,4.82,0,0,0,1.43,3.53A5.39,5.39,0,0,0,638.13,619.45Zm16.21.55h-1.1V602.23h1.1v8h10.89v-8h1.1V620h-1.1v-8.76H654.34Zm21.2,0h-1V602.23h1.11v16l11-16h1V620h-1.1V603.85Zm21.13,0h-1.39l5.22-7.58a5.16,5.16,0,0,1-3.72-1.43,5.53,5.53,0,0,1,0-7.33,5.22,5.22,0,0,1,3.83-1.43h8.24V620h-1.1v-7.58h-6Zm3.94-8.57h7.14v-8.21h-7.14a3.94,3.94,0,0,0-3,1.11,4.11,4.11,0,0,0-1.07,3,4.34,4.34,0,0,0,1,3A3.93,3.93,0,0,0,700.61,611.43ZM720.49,605h-1.1l.22-4.38-3.68,2.4-.55-1,3.9-2-3.9-2,.55-.95,3.68,2.39-.22-4.38h1.1l-.22,4.38,3.68-2.39.55.95-3.9,2,3.9,2-.55,1-3.68-2.4Z"/><rect class="cls-3" x="164" y="426.75" width="134.9" height="134.9" rx="34.59" ry="34.59"/><path class="cls-4" d="M268.65,506.24l-25,12.66-7.43-42.22,27.54-1.92Z"/><path class="cls-5" d="M196.65,474.16s13.06,2,18,1.47,16.72-3,18.47-2.43,32.4,34.47,33.13,36.53c.92,2.52-3.48,6.87-6.83,5.54,0,0,2.11,2.39.55,4-1.1,1.1-5.36,6.23-9,3.3,0,0,2.2,2.61-3.89,6-3.53,2-5.91.22-5.91.22s-3.72,5.6-7.2,4.27c-2-.78-46.52-32.27-46.52-32.27l8.85-26.08"/><path class="cls-4" d="M263.74,475.17,240,479.75s-4.77,3.3-9.53,6c-2.89,1.61-5.78,3-7.61,3.25a5.73,5.73,0,0,1-4.45-1l5.23-9.72c4.63-4.21,10-8.89,11.73-9.53,3.21-1.19,17.55,5,17.55,5Z"/><path class="cls-4" d="M207.05,514.22c-1.46,1.42-4,1.19-5.72-.55s-1.93-4.31-.51-5.73l6.51-6.46c1.47-1.42,4-1.19,5.73.55s1.92,4.31.5,5.73Z"/><path class="cls-6" d="M212.6,506.8l-3.25,2.93c-1.33,0-3.53-2.43-3.72-3.71a4.75,4.75,0,0,1,.14-1l2.57-2.52a1.94,1.94,0,0,1,1.42-.55A3.47,3.47,0,0,1,212.1,503C213.29,504.18,213.52,505.92,212.6,506.8Z"/><path class="cls-4" d="M214.3,520.41c-1.7,1.69-4.73,1.37-6.74-.64s-2.29-5.09-.55-6.79l7.7-7.61c1.69-1.69,4.72-1.37,6.74.65s2.29,5.08.54,6.78Z"/><path class="cls-4" d="M211.5,520.13a4.21,4.21,0,0,1-2.93-1.33c-1.47-1.51-1.75-3.66-.6-4.81l7.7-7.61a2.57,2.57,0,0,1,1.88-.69,4.25,4.25,0,0,1,2.93,1.33c1.47,1.52,1.74,3.67.6,4.82l-7.7,7.61A2.68,2.68,0,0,1,211.5,520.13Z"/><path class="cls-4" d="M221.9,526.37c-1.6,1.6-4.49,1.33-6.37-.6s-2.15-4.81-.55-6.37l7.24-7.15c1.61-1.61,4.49-1.33,6.37.59s2.16,4.82.55,6.38Z"/><path class="cls-4" d="M219.24,526a4,4,0,0,1-2.75-1.23c-1.37-1.38-1.6-3.39-.54-4.45l7.24-7.15a2.32,2.32,0,0,1,1.69-.64,4,4,0,0,1,2.75,1.24c1.38,1.37,1.61,3.39.55,4.44l-7.24,7.15A2.34,2.34,0,0,1,219.24,526Z"/><path class="cls-4" d="M229.1,531.27c-1.42,1.42-3.94,1.15-5.64-.55s-1.88-4.22-.46-5.64l6.42-6.32c1.42-1.42,3.94-1.15,5.64.55s1.87,4.21.45,5.64Z"/><path class="cls-4" d="M226.71,530.81a3.16,3.16,0,0,1-2.29-1,3.33,3.33,0,0,1-1-2.06,2.08,2.08,0,0,1,.51-1.61l6.42-6.32a2,2,0,0,1,1.37-.51,3.14,3.14,0,0,1,2.29,1.06c1.15,1.14,1.38,2.84.51,3.71l-6.42,6.32A2.05,2.05,0,0,1,226.71,530.81Z"/><path class="cls-4" d="M231.12,484.66l-.65,1-2.29,3.39c-5.77,6.33-11.14,1.29-11.14,1.29l1.33-2.48,5.23-9.72Z"/><path class="cls-4" d="M236.16,479.66a1.77,1.77,0,0,0,.18.28c1.19,1.92,8.25,12.83,18,13.56,10.68.83-11.18-20.35-11.18-20.35"/><path class="cls-1" d="M273.05,472.09l-10.34,1.15,4.17,37.36,10.33-1.15Z"/><path class="cls-1" d="M190.08,471.62l-4.6,37.3,10.32,1.28,4.61-37.31Z"/><path class="cls-6" d="M220.12,511.42l-3.26,2.94c-1.33,0-3.53-2.43-3.71-3.72a4.16,4.16,0,0,1,.14-1l2.56-2.53a2,2,0,0,1,1.42-.54,3.44,3.44,0,0,1,2.34,1.05C220.8,508.81,221,510.55,220.12,511.42Z"/><path class="cls-6" d="M227.86,517.61,225,520.27c-1.19,0-3.16-2.15-3.34-3.35a3.8,3.8,0,0,1,.09-.91l2.29-2.29a1.68,1.68,0,0,1,1.28-.46,3.06,3.06,0,0,1,2.11,1A2.49,2.49,0,0,1,227.86,517.61Z"/><path class="cls-6" d="M234.05,523.66l-2.66,2.43c-1.1,0-2.89-2-3.07-3.07a2.92,2.92,0,0,1,.09-.82l2.11-2.11a1.63,1.63,0,0,1,1.19-.46,2.77,2.77,0,0,1,1.93.87C234.6,521.51,234.78,523,234.05,523.66Z"/><path class="cls-6" d="M217,490.43s2.25,0,3.21-1.33,2.89-4.4,2.8-5.13-1.79-1.42-1.79-1.42Z"/></svg>